HIERARCHY
ROOT root
{
	OFFSET 0.000000 0.000000 0.000000
	CHANNELS 6 Xposition Yposition Zposition Zrotation Yrotation Xrotation
	JOINT lhip
	{
		OFFSET 0.058581 -0.082280 -0.017664
		CHANNELS 3 Zrotation Yrotation Xrotation
		JOINT lknee
		{
			OFFSET 0.043451 -0.386469 0.008037
			CHANNELS 3 Zrotation Yrotation Xrotation
			JOINT lankle
			{
				OFFSET -0.014790 -0.426874 -0.037428
				CHANNELS 3 Zrotation Yrotation Xrotation
				JOINT ltoe
				{
					OFFSET 0.041054 -0.060286 0.122042
					CHANNELS 3 Zrotation Yrotation Xrotation
					End Site
					{
						OFFSET 0.000000 0.000000 0.000000
					}
				}
			}
		}
	}
	JOINT rhip
	{
		OFFSET -0.060310 -0.090513 -0.013543
		CHANNELS 3 Zrotation Yrotation Xrotation
		JOINT rknee
		{
			OFFSET -0.043257 -0.383688 -0.004843
			CHANNELS 3 Zrotation Yrotation Xrotation
			JOINT rankle
			{
				OFFSET 0.019056 -0.420046 -0.034562
				CHANNELS 3 Zrotation Yrotation Xrotation
				JOINT rtoe
				{
					OFFSET -0.034840 -0.062106 0.130323
					CHANNELS 3 Zrotation Yrotation Xrotation
					End Site
					{
						OFFSET 0.000000 0.000000 0.000000
					}
				}
			}
		}
	}
	JOINT lowerback
	{
		OFFSET 0.004439 0.124404 -0.038385
		CHANNELS 3 Zrotation Yrotation Xrotation
		JOINT upperback
		{
			OFFSET 0.004488 0.137956 0.026820
			CHANNELS 3 Zrotation Yrotation Xrotation
			JOINT chest
			{
				OFFSET -0.002265 0.056032 0.002855
				CHANNELS 3 Zrotation Yrotation Xrotation
				JOINT lowerneck
				{
					OFFSET -0.013390 0.211636 -0.033468
					CHANNELS 3 Zrotation Yrotation Xrotation
					JOINT upperneck
					{
						OFFSET 0.010113 0.088937 0.050410
						CHANNELS 3 Zrotation Yrotation Xrotation
						End Site
						{
							OFFSET 0.000000 0.000000 0.000000
						}
					}
				}
				JOINT lclavicle
				{
					OFFSET 0.071702 0.114000 -0.018898
					CHANNELS 3 Zrotation Yrotation Xrotation
					JOINT lshoulder
					{
						OFFSET 0.122921 0.045205 -0.019046
						CHANNELS 3 Zrotation Yrotation Xrotation
						JOINT lelbow
						{
							OFFSET 0.255332 -0.015649 -0.022946
							CHANNELS 3 Zrotation Yrotation Xrotation
							JOINT lwrist
							{
								OFFSET 0.265709 0.012698 -0.007375
								CHANNELS 3 Zrotation Yrotation Xrotation
								End Site
								{
									OFFSET 0.000000 0.000000 0.000000
								}
							}
						}
					}
				}
				JOINT rclavicle
				{
					OFFSET -0.082954 0.112472 -0.023707
					CHANNELS 3 Zrotation Yrotation Xrotation
					JOINT rshoulder
					{
						OFFSET -0.113228 0.046853 -0.008472
						CHANNELS 3 Zrotation Yrotation Xrotation
						JOINT relbow
						{
							OFFSET -0.260127 -0.014369 -0.031269
							CHANNELS 3 Zrotation Yrotation Xrotation
							JOINT rwrist
							{
								OFFSET -0.269108 0.006794 -0.006027
								CHANNELS 3 Zrotation Yrotation Xrotation
								End Site
								{
									OFFSET 0.000000 0.000000 0.000000
								}
							}
						}
					}
				}
			}
		}
	}
}
MOTION
Frames: 8
Frame Time: 0.033333
0.082917 0.266607 0.940489 94.930480 -2.322880 72.760132 0.867677 -1.016018 5.101500 0.470325 4.295702 36.047879 2.101640 5.054028 -22.789569 0.000000 -0.000000 0.000000 -6.660487 -4.703768 4.577774 -9.426252 -10.187234 42.222766 2.054917 -6.119550 -24.044042 0.000000 -0.000000 0.000000 1.461518 3.080121 13.965060 0.420719 -1.899930 13.012659 -0.661467 2.673571 -1.558427 -1.246999 0.439744 4.784937 0.674306 2.090924 11.893992 -13.902012 -13.181463 -2.226325 -67.611159 -19.896519 8.208428 164.134065 -47.650862 -119.903549 -43.399330 -2.876059 -18.836008 7.549968 18.344257 -3.933783 73.795612 22.128987 12.779221 -157.678712 49.935371 -99.326614 61.373726 -23.649503 16.126753 
0.083414 0.267186 0.946545 94.472998 -2.339615 73.840969 1.056121 -0.816398 5.063414 0.251583 4.744131 33.993034 1.916981 4.680063 -21.833058 0.000000 -0.000000 0.000000 -6.760385 -4.857165 4.275322 -9.071761 -10.454241 40.372703 2.310741 -5.357026 -23.198544 0.000000 -0.000000 0.000000 1.545959 3.032401 13.446249 0.305229 -1.674999 11.469390 -0.733616 2.806367 -1.279296 -1.186464 0.635694 4.096337 0.706338 2.145057 12.744569 -13.691773 -12.256249 -2.427444 -67.773929 -19.773898 8.317904 164.258737 -47.610299 -120.278247 -42.181020 -2.869170 -18.370045 7.431642 17.821252 -3.951694 74.003388 22.526627 13.198505 -157.936084 49.730859 -99.613453 59.283094 -23.366319 17.175018 
0.083016 0.267355 0.951406 94.021656 -2.306390 74.806951 1.230411 -0.900240 4.875770 -0.027070 5.237929 32.322418 1.819393 4.474951 -20.893701 0.000000 -0.000000 0.000000 -6.797036 -4.877386 3.826766 -8.754840 -10.798781 38.931849 2.416218 -4.702997 -22.385609 0.000000 -0.000000 0.000000 1.697492 3.412442 11.638540 0.422047 -1.586391 12.093956 -0.934188 2.810802 -1.096014 -0.966971 1.141148 3.288967 0.570500 1.608178 13.264059 -13.458097 -13.056504 -2.767978 -67.217053 -20.573327 8.098752 162.980221 -46.776662 -118.698359 -40.332643 -3.251449 -17.351272 7.061756 18.027178 -4.253918 73.291123 23.795398 12.825782 -157.570870 49.146284 -98.819305 56.759446 -22.538481 17.619781 
0.081875 0.267639 0.954467 93.774452 -2.257246 75.620805 1.274500 -0.967668 4.182823 -0.105200 5.503148 31.807169 1.887995 4.403867 -20.278754 0.000000 -0.000000 0.000000 -6.749905 -4.906011 3.052388 -8.681612 -10.982102 38.389848 2.599160 -4.476256 -21.771590 0.000000 -0.000000 0.000000 1.853969 3.353283 11.363138 0.353388 -1.473252 10.829963 -1.071520 2.878224 -0.804383 -0.857318 1.395717 2.873636 0.479724 1.595393 14.175351 -12.912962 -13.070217 -3.319700 -66.467231 -21.519956 7.722212 162.455470 -46.433026 -117.461627 -38.710993 -4.138303 -17.533850 6.709368 17.945974 -4.692098 73.021211 24.894184 12.978479 -157.122774 48.699544 -97.733127 53.727797 -22.090830 18.221624 
0.080656 0.268117 0.954304 93.610905 -2.249783 76.057559 1.241690 -1.007168 3.193735 0.106824 5.753776 32.681283 1.888942 4.449356 -20.489838 0.000000 -0.000000 0.000000 -6.568038 -4.721209 2.109843 -8.923571 -10.845594 39.003281 2.713864 -4.548518 -21.752553 0.000000 -0.000000 0.000000 1.951132 3.141531 12.052356 0.133240 -1.344973 9.000505 -1.136537 3.051673 -0.583467 -0.928586 1.369707 2.816533 0.661130 1.770235 14.777616 -12.190891 -13.139301 -3.947138 -66.098314 -22.180791 7.659113 162.100094 -45.892011 -117.069742 -37.325612 -4.592644 -17.673469 6.077807 18.055267 -5.210330 73.159517 25.385865 13.212344 -156.615029 48.230123 -97.110643 51.717882 -21.772676 18.976604 
0.079650 0.268876 0.950843 93.676361 -2.300669 75.559714 1.070334 -0.854692 2.826218 0.436688 5.612822 34.336545 1.975126 4.421300 -21.115045 0.000000 -0.000000 0.000000 -6.532204 -4.678698 1.798474 -9.388432 -10.486467 40.540294 2.679337 -4.849922 -22.342187 0.000000 -0.000000 0.000000 1.978992 3.001176 13.150412 -0.082948 -1.334033 8.399154 -1.100537 3.051997 -0.445477 -1.205909 1.293787 2.844711 0.899316 2.024006 14.551539 -11.659199 -13.727602 -4.541796 -65.459351 -22.815985 7.323972 161.701231 -45.410958 -116.994595 -36.895823 -4.592055 -17.527914 5.269271 18.655265 -5.921510 73.200382 25.666877 13.187502 -155.448647 47.712672 -96.675897 50.580320 -21.429476 19.772606 
0.079132 0.269593 0.944714 93.933923 -2.387923 74.521076 0.894746 -0.539796 2.953547 0.679628 5.133152 36.206080 2.136536 4.638962 -22.291211 0.000000 -0.000000 0.000000 -6.720276 -4.863919 2.001933 -9.660986 -9.848541 42.370083 2.596653 -5.437456 -23.251203 0.000000 -0.000000 0.000000 1.814254 2.989465 14.424272 -0.176514 -1.540366 8.647105 -0.999063 3.096738 -0.528472 -1.288132 1.317243 3.381970 0.927978 2.118375 13.959069 -11.444300 -14.584774 -4.630302 -64.668642 -23.288699 6.808443 161.652900 -45.147104 -116.908927 -36.193557 -4.564938 -18.089828 5.192733 19.355804 -5.987251 72.531974 25.741658 12.671934 -155.684164 47.544460 -96.488533 49.218613 -21.903442 20.978513 
0.079415 0.270030 0.938395 94.125616 -2.457739 73.203967 0.723973 -0.331783 3.487871 0.864961 4.739119 37.972534 2.302168 4.919062 -23.459042 0.000000 -0.000000 0.000000 -6.917644 -4.925117 2.630335 -10.025530 -9.413975 44.109157 2.357934 -5.770189 -24.273709 0.000000 -0.000000 0.000000 1.596523 3.327462 14.899648 -0.037461 -1.661639 10.614983 -0.906393 2.917422 -0.836848 -1.298597 1.322444 4.053533 0.821680 1.825620 12.740775 -11.829570 -15.482395 -4.567998 -64.392867 -23.365864 6.790854 161.751108 -45.063000 -117.228634 -36.833517 -4.243812 -18.086271 5.633448 19.768625 -5.967096 71.966119 25.281974 12.144490 -155.848952 47.550394 -96.884216 50.048824 -22.469819 20.708457 
